<svg width="33" height="32" viewBox="0 0 33 32" fill="none" xmlns="http://www.w3.org/2000/svg">
<path d="M0.414062 1.95437C0.414063 1.66713 0.528168 1.39166 0.731276 1.18855C0.934384 0.985443 1.20986 0.871338 1.4971 0.871338H4.7462C4.98778 0.871405 5.22241 0.952242 5.41276 1.10099C5.60312 1.24975 5.73828 1.45787 5.79674 1.69228L6.674 5.20347H31.822C31.9866 5.20352 32.1489 5.24104 32.2967 5.31319C32.4446 5.38534 32.574 5.49022 32.6753 5.61988C32.7766 5.74953 32.847 5.90055 32.8811 6.06147C32.9153 6.22239 32.9124 6.38898 32.8726 6.5486L29.6235 19.545C29.565 19.7794 29.4299 19.9875 29.2395 20.1363C29.0492 20.285 28.8145 20.3659 28.5729 20.3659H9.07833C8.83675 20.3659 8.60212 20.285 8.41177 20.1363C8.22141 19.9875 8.08625 19.7794 8.02779 19.545L3.90143 3.03741H1.4971C1.20986 3.03741 0.934384 2.9233 0.731276 2.72019C0.528168 2.51708 0.414063 2.24161 0.414062 1.95437ZM7.21552 7.36954L8.29855 11.7017H11.2444V7.36954H7.21552ZM13.4105 7.36954V11.7017H17.7426V7.36954H13.4105ZM19.9087 7.36954V11.7017H24.2408V7.36954H19.9087ZM26.4069 7.36954V11.7017H29.3527L30.4358 7.36954H26.4069ZM28.8112 13.8677H26.4069V18.1999H27.7282L28.8112 13.8677ZM24.2408 13.8677H19.9087V18.1999H24.2408V13.8677ZM17.7426 13.8677H13.4105V18.1999H17.7426V13.8677ZM11.2444 13.8677H8.84007L9.9231 18.1999H11.2444V13.8677ZM11.2444 24.6981C10.816 24.6981 10.3972 24.8251 10.041 25.0631C9.68479 25.3011 9.40716 25.6394 9.24321 26.0352C9.07927 26.431 9.03638 26.8666 9.11995 27.2867C9.20353 27.7069 9.40983 28.0929 9.71276 28.3958C10.0157 28.6987 10.4016 28.905 10.8218 28.9886C11.242 29.0722 11.6775 29.0293 12.0733 28.8653C12.4691 28.7014 12.8074 28.4238 13.0454 28.0676C13.2834 27.7113 13.4105 27.2926 13.4105 26.8641C13.4105 26.2897 13.1823 25.7387 12.776 25.3325C12.3698 24.9263 11.8189 24.6981 11.2444 24.6981ZM6.91227 26.8641C6.91227 26.0073 7.16634 25.1698 7.64236 24.4573C8.11838 23.7449 8.79497 23.1897 9.58656 22.8618C10.3782 22.5339 11.2492 22.4481 12.0896 22.6153C12.9299 22.7824 13.7018 23.195 14.3077 23.8009C14.9135 24.4067 15.3261 25.1786 15.4933 26.019C15.6605 26.8593 15.5747 27.7304 15.2468 28.522C14.9189 29.3136 14.3636 29.9902 13.6512 30.4662C12.9388 30.9422 12.1012 31.1963 11.2444 31.1963C10.0954 31.1963 8.99355 30.7399 8.18112 29.9274C7.36869 29.115 6.91227 28.0131 6.91227 26.8641ZM26.4069 24.6981C25.9785 24.6981 25.5597 24.8251 25.2035 25.0631C24.8473 25.3011 24.5696 25.6394 24.4057 26.0352C24.2417 26.431 24.1988 26.8666 24.2824 27.2867C24.366 27.7069 24.5723 28.0929 24.8752 28.3958C25.1782 28.6987 25.5641 28.905 25.9843 28.9886C26.4045 29.0722 26.84 29.0293 27.2358 28.8653C27.6316 28.7014 27.9699 28.4238 28.2079 28.0676C28.4459 27.7113 28.5729 27.2926 28.5729 26.8641C28.5729 26.2897 28.3447 25.7387 27.9385 25.3325C27.5323 24.9263 26.9813 24.6981 26.4069 24.6981ZM22.0747 26.8641C22.0747 26.0073 22.3288 25.1698 22.8048 24.4573C23.2809 23.7449 23.9574 23.1897 24.749 22.8618C25.5406 22.5339 26.4117 22.4481 27.252 22.6153C28.0924 22.7824 28.8643 23.195 29.4702 23.8009C30.076 24.4067 30.4886 25.1786 30.6558 26.019C30.8229 26.8593 30.7371 27.7304 30.4092 28.522C30.0814 29.3136 29.5261 29.9902 28.8137 30.4662C28.1013 30.9422 27.2637 31.1963 26.4069 31.1963C25.2579 31.1963 24.156 30.7399 23.3436 29.9274C22.5312 29.115 22.0747 28.0131 22.0747 26.8641Z" fill="white"/>
</svg>
