<svg width="14" height="15" viewBox="0 0 14 15" fill="none" xmlns="http://www.w3.org/2000/svg">
<path d="M0.300781 0.525879C0.300781 0.393271 0.35346 0.266094 0.447228 0.172325C0.540996 0.0785573 0.668173 0.0258789 0.800781 0.0258789H12.8008C12.9334 0.0258789 13.0606 0.0785573 13.1543 0.172325C13.2481 0.266094 13.3008 0.393271 13.3008 0.525879V2.52588C13.3008 2.64919 13.2552 2.76814 13.1728 2.85988L8.80078 7.71788V12.5259C8.8007 12.6308 8.76763 12.733 8.70626 12.8181C8.64488 12.9031 8.5583 12.9667 8.45878 12.9999L5.45878 13.9999C5.38366 14.0249 5.30366 14.0317 5.22538 14.0198C5.1471 14.0078 5.07278 13.9775 5.00853 13.9312C4.94428 13.8849 4.89194 13.824 4.85583 13.7536C4.81971 13.6831 4.80084 13.6051 4.80078 13.5259V7.71788L0.428781 2.85988C0.346389 2.76814 0.300803 2.64919 0.300781 2.52588V0.525879ZM1.30078 1.02588V2.33388L5.67278 7.19188C5.75517 7.28362 5.80076 7.40257 5.80078 7.52588V12.8319L7.80078 12.1659V7.52588C7.8008 7.40257 7.84639 7.28362 7.92878 7.19188L12.3008 2.33388V1.02588H1.30078Z" fill="#6E7587"/>
</svg>
