<svg width="33" height="32" viewBox="0 0 33 32" fill="none" xmlns="http://www.w3.org/2000/svg">
<path d="M16.407 6.42719L14.9473 4.93723C14.0815 4.14538 13.0433 3.56272 11.9135 3.23466C10.7837 2.9066 9.59297 2.84198 8.43395 3.04585C7.27492 3.24971 6.17893 3.71655 5.23137 4.41C4.2838 5.10345 3.51024 6.00479 2.97095 7.04379C2.34436 8.46185 2.07511 10.0102 2.18649 11.5548C2.29787 13.0994 2.78652 14.5938 3.61018 15.9088C5.48308 19.5781 9.37953 23.9731 16.407 28.7705C23.4344 23.9832 27.3289 19.5882 29.2038 15.9189C30.0295 14.6028 30.5193 13.1066 30.6307 11.56C30.7421 10.0134 30.4717 8.46312 29.843 7.04379C29.3039 6.00464 28.5305 5.10311 27.583 4.40946C26.6355 3.71581 25.5396 3.24876 24.3806 3.04469C23.2215 2.84063 22.0307 2.90507 20.9008 3.23298C19.771 3.56089 18.7326 4.14343 17.8666 4.93521L16.407 6.42719ZM16.407 31.1965C-14.8074 10.7131 6.79615 -5.27415 16.0487 3.18243C16.1708 3.29362 16.2909 3.40886 16.407 3.52814C16.5223 3.40953 16.6418 3.29497 16.7653 3.18445C26.0158 -5.27819 47.6213 10.7111 16.407 31.1965Z" fill="white"/>
</svg>
