<svg width="31" height="30" viewBox="0 0 31 30" fill="none" xmlns="http://www.w3.org/2000/svg">
<path d="M15.7536 15.1032C17.2238 15.1032 18.6609 14.6672 19.8833 13.8505C21.1057 13.0337 22.0584 11.8728 22.621 10.5145C23.1836 9.15631 23.3308 7.66175 23.044 6.21985C22.7572 4.77796 22.0492 3.45349 21.0097 2.41395C19.9701 1.3744 18.6457 0.666457 17.2038 0.379646C15.7619 0.0928354 14.2673 0.240037 12.9091 0.802637C11.5509 1.36524 10.3899 2.31797 9.57318 3.54034C8.75641 4.76272 8.32046 6.19985 8.32046 7.66999C8.32046 9.6414 9.1036 11.5321 10.4976 12.926C11.8916 14.32 13.7822 15.1032 15.7536 15.1032ZM20.7091 7.66999C20.7091 8.65009 20.4185 9.60818 19.8739 10.4231C19.3294 11.238 18.5555 11.8732 17.65 12.2482C16.7445 12.6233 15.7481 12.7214 14.7869 12.5302C13.8256 12.339 12.9426 11.8671 12.2496 11.174C11.5566 10.481 11.0846 9.59802 10.8934 8.63675C10.7022 7.67549 10.8003 6.67912 11.1754 5.77363C11.5505 4.86814 12.1856 4.0942 13.0005 3.54969C13.8155 3.00518 14.7735 2.71455 15.7536 2.71455C17.0679 2.71455 18.3283 3.23664 19.2577 4.16596C20.187 5.09529 20.7091 6.35573 20.7091 7.66999ZM30.62 27.4918C30.6271 27.8191 30.5679 28.1445 30.4458 28.4483C30.3238 28.7521 30.1416 29.0281 29.9101 29.2596C29.6786 29.4911 29.4026 29.6734 29.0988 29.7954C28.795 29.9174 28.4696 29.9766 28.1423 29.9695H3.36501C3.03769 29.9766 2.71232 29.9174 2.40849 29.7954C2.10467 29.6734 1.8287 29.4911 1.59719 29.2596C1.36568 29.0281 1.18343 28.7521 1.06143 28.4483C0.939426 28.1445 0.880189 27.8191 0.887289 27.4918C0.887289 25.0141 3.36501 17.5809 15.7536 17.5809C28.1423 17.5809 30.62 25.0141 30.62 27.4918ZM28.1423 27.4918C27.9712 25.9149 27.2397 24.4519 26.0808 23.3689C24.668 22.1549 23.0262 21.2365 21.2525 20.6679C19.4787 20.0993 17.6089 19.8921 15.7536 20.0586C13.8991 19.8907 12.0296 20.0962 10.2559 20.663C8.48208 21.2299 6.83993 22.1466 5.42648 23.3589C4.26659 24.4453 3.53509 25.9118 3.36501 27.4918H28.1423Z" fill="white"/>
</svg>
