<svg width="19" height="19" viewBox="0 0 19 19" fill="none" xmlns="http://www.w3.org/2000/svg">
<path d="M13.4211 11.7086C14.5104 10.2224 14.9985 8.37975 14.7877 6.54922C14.5768 4.71869 13.6826 3.03525 12.2839 1.83563C10.8853 0.636008 9.08522 0.00866115 7.24388 0.0790762C5.40253 0.149491 3.65566 0.912476 2.35269 2.21541C1.04971 3.51835 0.286701 5.26516 0.216283 7.10645C0.145866 8.94773 0.773233 10.7477 1.97289 12.1464C3.17255 13.545 4.85605 14.4392 6.68663 14.65C8.51722 14.8608 10.3599 14.3728 11.8461 13.2835C11.8808 13.329 11.9184 13.3722 11.9586 13.4129L16.2898 17.7439C16.5008 17.955 16.7869 18.0736 17.0853 18.0737C17.3838 18.0738 17.67 17.9554 17.8811 17.7445C18.0922 17.5335 18.2108 17.2474 18.2109 16.949C18.211 16.6505 18.0926 16.3643 17.8817 16.1532L13.5505 11.8222C13.5103 11.7815 13.467 11.7439 13.4211 11.7097V11.7086ZM13.7114 7.38428C13.7114 8.60799 13.3485 9.80422 12.6686 10.8217C11.9887 11.8392 11.0224 12.6322 9.89178 13.1005C8.76118 13.5688 7.5171 13.6913 6.31686 13.4526C5.11663 13.2139 4.01414 12.6246 3.14882 11.7593C2.28349 10.894 1.6942 9.79154 1.45546 8.59134C1.21672 7.39114 1.33925 6.1471 1.80756 5.01654C2.27587 3.88598 3.06892 2.91967 4.08643 2.23981C5.10394 1.55995 6.30021 1.19708 7.52396 1.19708C9.16496 1.19708 10.7387 1.84894 11.8991 3.00927C13.0595 4.16959 13.7114 5.74333 13.7114 7.38428Z" fill="#6E7587"/>
</svg>
