<svg width="29" height="29" viewBox="0 0 29 29" fill="none" xmlns="http://www.w3.org/2000/svg">
<path d="M21.3962 18.77C23.1113 16.4301 23.8797 13.529 23.5478 10.6469C23.2158 7.76486 21.808 5.11438 19.6058 3.22566C17.4037 1.33693 14.5696 0.349213 11.6706 0.460077C8.77149 0.570941 6.02115 1.77221 3.9697 3.8236C1.91825 5.87499 0.71694 8.62524 0.606073 11.5242C0.495206 14.4232 1.48295 17.2572 3.37174 19.4592C5.26053 21.6613 7.91108 23.0691 10.7932 23.4011C13.6754 23.733 16.5766 22.9646 18.9165 21.2496C18.9711 21.3212 19.0302 21.3893 19.0937 21.4533L25.9128 28.2722C26.2449 28.6045 26.6955 28.7913 27.1653 28.7915C27.6352 28.7917 28.0858 28.6052 28.4182 28.2731C28.7505 27.941 28.9373 27.4905 28.9375 27.0206C28.9377 26.5508 28.7512 26.1001 28.4191 25.7678L21.5999 18.9488C21.5366 18.8847 21.4685 18.8255 21.3962 18.7717V18.77ZM21.8532 11.9616C21.8532 13.8883 21.2819 15.7717 20.2114 17.3736C19.141 18.9756 17.6196 20.2242 15.8395 20.9615C14.0595 21.6988 12.1007 21.8917 10.211 21.5158C8.32135 21.1399 6.58555 20.2122 5.22316 18.8498C3.86076 17.4875 2.93296 15.7517 2.55708 13.8621C2.18119 11.9724 2.37411 10.0138 3.11143 8.23379C3.84875 6.45379 5.09737 4.9324 6.69937 3.86201C8.30138 2.79162 10.1848 2.2203 12.1115 2.2203C14.6952 2.2203 17.173 3.24662 18.9999 5.07347C20.8268 6.90033 21.8532 9.37808 21.8532 11.9616Z" fill="#1A171B"/>
</svg>
