<svg width="15" height="18" viewBox="0 0 15 18" fill="none" xmlns="http://www.w3.org/2000/svg">
<path d="M2.12358 12.0137L2.17381 12.064L7.16658 17.3076L12.1092 12.089L12.3348 11.8635C13.539 10.5588 14.1914 8.87779 14.1914 7.12158C14.1914 5.18966 13.4137 3.43346 12.134 2.17899C10.8545 0.899484 9.12333 0.121582 7.19141 0.121582C5.25949 0.121582 3.50328 0.899305 2.24882 2.17899C0.969309 3.4585 0.191406 5.18966 0.191406 7.12158C0.191406 8.87779 0.843683 10.5588 2.04806 11.8635L2.12358 12.0137ZM1.19514 7.14641C1.19514 3.85976 3.85456 1.17516 7.16639 1.17516C10.453 1.17516 13.1376 3.8598 13.1376 7.14641C13.1376 8.55136 12.6359 9.90632 11.7327 10.9851L11.5069 11.236C11.4819 11.2863 11.4317 11.3113 11.4066 11.3363L7.16633 15.8022L2.9012 11.3363C2.87617 11.3113 2.82594 11.2611 2.80092 11.236L2.65023 11.0101H2.62521L2.60018 10.9851C1.67174 9.90614 1.19505 8.55141 1.19505 7.14623L1.19514 7.14641Z" fill="#6E7587"/>
</svg>
